<?xml version="1.0" encoding="UTF-8"?>
<svg id="Layer_2" data-name="Layer 2" xmlns="http://www.w3.org/2000/svg" viewBox="0 0 216.54 192.94">
  <defs>
    <style>
      .cls-1 {
        fill: #1c3557;
      }
    </style>
  </defs>
  <g id="Layer_1-2" data-name="Layer 1">
    <g>
      <g>
        <path class="cls-1" d="M.28,192.38c-.09-.31-.07-1.11-.07-1.78.03-.64-.02-1.13.63-1.12,2.04,0,10.67,0,12.74,0,1.09.02,2.42-.3,2.96-1.41.69-1.42-.27-3.05-1.8-3.24-3.18-.41-7.61.28-10.78-.37-3.88-.65-5.29-6.02-2.49-8.58,1.82-1.59,3.83-1.53,6.26-1.52,3.26.02,7.99-.05,10.94.03.55.23.32.85.39,1.57-.05.66.11,1.15-.27,1.52-1.35.21-2.56.02-4.59.08-2.08,0-4.23,0-6.29,0-1.67.05-2.16-.17-3.26.34-1.54.69-1.55,3.11,0,3.79.94.49,2.49.28,4.07.33,3.02.17,6.19-.55,9,.85,3.64,2.23,2.68,8.82-1.77,9.54-3.43.59-6.34.12-11.21.26-1.89,0-3.47.01-4.08,0-.17-.01-.29-.06-.36-.22l-.03-.07Z"/>
        <path class="cls-1" d="M22.75,192.61c-.2-3.72-.03-16.95-.06-18.04.07-.28.25-.19.62-.22.79,0,2.62,0,4.5,0,4.86.16,7.91-.74,11.54,2.05,4.29,3.47,4.01,10.96-.3,14.32-2.26,1.8-4.68,2.03-7.6,1.95-2.15-.03-6.69.07-8.67-.04l-.03-.02ZM33.68,189.45c6.23-.13,7.59-9.53,1.77-11.52-1.58-.49-2.11-.36-4.05-.38-1.87.03-3.96-.05-5.32.03-.15.03-.17.12-.19.26,0,1.26-.05,8.97.02,11.46.04.14.16.15.31.16,1.23,0,5.65.03,7.35,0h.11Z"/>
        <g>
          <path class="cls-1" d="M59.42,192.41c-.09-.31-.07-1.11-.07-1.79.03-.64-.02-1.13.63-1.12,2.04,0,10.7,0,12.78,0,1.1.02,2.42-.3,2.97-1.41.7-1.43-.27-3.06-1.8-3.25-3.19-.41-7.63.28-10.81-.37-3.9-.65-5.3-6.04-2.49-8.6,1.83-1.59,3.84-1.53,6.28-1.52,3.26.02,8.02-.05,10.97.03.56.23.32.85.39,1.57-.05.66.11,1.16-.27,1.52-1.36.21-2.56.02-4.6.08-2.08,0-4.24,0-6.31,0-1.67.05-2.16-.17-3.27.34-1.55.69-1.55,3.12,0,3.81.94.5,2.5.28,4.08.33,3.03.17,6.2-.55,9.02.86,3.65,2.24,2.68,8.85-1.77,9.57-3.44.59-6.36.12-11.24.26-1.89,0-3.48.01-4.09,0-.17-.01-.29-.06-.36-.22l-.03-.07Z"/>
          <path class="cls-1" d="M90.13,192.69c-10.68-.27-12.04-16.46-1.52-18.16,2.58-.3,5.51-.3,8.11,0,4.94.7,7.98,5.38,7.16,10.4-.5,3.66-3.21,6.76-6.88,7.52-2,.43-4.53.24-6.72.25h-.14ZM95.15,189.47c7.8-.48,7.24-12.16-.51-11.92-1.91.05-3.95-.19-5.81.24-2.93.63-4.72,3.82-4.11,6.92,1.02,5.3,6,4.9,10.3,4.77h.14Z"/>
          <path class="cls-1" d="M106.68,192.65c-.15-1.71,0-15.68-.05-17.92.02-.3.16-.33.54-.37.77.02,2.06-.16,2.6.15.24.89.03,3.53.1,6.66.07,2.33-.15,6.68.09,8.25,2.5.23,10.04-.03,12.01.1.19.03.27.12.32.32.09.45.06,1.25.06,1.77-.03.43.07,1.04-.38,1.09-1.98-.02-13.83.08-15.28-.03l-.02-.02Z"/>
          <path class="cls-1" d="M141.61,174.41c.26-.1.8-.09,1.35-.09.66.05,1.2-.09,1.45.4.16,1.98,0,4.88.06,7.4.56,8.5-3.04,11.17-11.38,10.78-6.97-.23-8.97-4.2-8.67-9.67.03-1.85-.08-6.61.05-8.51.06-.17.16-.26.34-.31.46-.13,1.72-.11,2.35-.05.19.04.43.09.52.28.23,2.42.01,7.22.09,9.16-.2,3.54,1.34,5.7,5.13,5.89,2.11.16,4.79.15,6.58-.96,1.56-.94,1.85-3.08,1.83-4.8,0-1.24,0-4.57,0-6.94.09-1.37-.23-2.16.24-2.56l.08-.03Z"/>
          <path class="cls-1" d="M153.55,192.63c-.1-.04-.15-.1-.17-.19-.17-1.49.24-13.45-.17-14.82-1.65-.26-5.28.12-6.57-.17-.46-.31-.29-.98-.33-1.51,0-.46-.04-1.16.12-1.47,1.28-.37,8.32-.02,13.12-.14,1.96.02,3.44-.04,3.86.04.33.21.19.65.24,1.4.09,2.04-.22,1.78-2.37,1.78-1.54.03-3.16-.06-4.42.04-.25.05-.25.21-.26.43-.01,1.96.01,12.57-.01,14.3-.06.39-.33.34-.79.38-.73,0-1.86.04-2.18-.05l-.07-.02Z"/>
          <path class="cls-1" d="M166.11,192.67c-.32-.29-.05-1.68-.13-3.75.01-3.23-.02-12.82.01-14.39.07-.18.19-.15.45-.18.4-.02,1.29,0,1.89,0,.51.04.92-.12.89.42,0,3.92,0,15.65,0,17.66-.02.26-.13.25-.46.28-.66,0-2.04.04-2.59-.02h-.06Z"/>
          <path class="cls-1" d="M180.85,192.69c-10.68-.27-12.04-16.46-1.52-18.16,2.58-.3,5.51-.3,8.11,0,4.94.7,7.98,5.38,7.16,10.4-.5,3.66-3.21,6.76-6.88,7.52-2,.43-4.53.24-6.72.25h-.14ZM185.87,189.47c7.8-.48,7.24-12.16-.51-11.92-1.91.05-3.95-.19-5.81.24-2.93.63-4.72,3.82-4.11,6.92,1.02,5.3,6,4.9,10.3,4.77h.14Z"/>
          <path class="cls-1" d="M200.4,179.34c-.11,1.37,0,10.59-.04,12.88,0,.25-.04.46-.31.55-.58.11-2.57.29-2.75-.22-.09-2.19,0-4.5-.03-7.52,0-3.07-.01-6.28,0-8.87.07-1.95,2.1-2.66,3.43-1.13,1.88,1.85,11.99,12.01,12.59,12.53.06.03.09-.01.1-.13.03-1.25,0-2.64.01-4.34.02-2.56-.03-6.42.02-8.58.14-.59.73-.41,1.45-.47.62.06,1.44-.16,1.61.38.03,1.87.01,6.14.02,8.68-.1,3.63.21,5.85-.14,8.5-.47,1.59-2.33,1.57-3.29.46-1.73-1.68-9.72-9.97-12.67-12.74h-.01Z"/>
        </g>
      </g>
      <path class="cls-1" d="M116.48,0c-.58.42-1.49,1.17-2.27,2.33-.7,1.03-1.03,1.96-1.2,2.56-.3,1.07-.29,1.93-.27,2.36.08,1.67.75,2.8,1.05,3.25.32.49,1.07,1.45,2.44,2.14.41.2,1.26.58,2.45.7,1.46.16,2.68-.13,3.36-.33,1.42-.43,2.45-1.12,3.02-1.55-.47.24-1.21.56-2.12.72-1.45.25-2.53-.03-3.29-.24-.65-.18-1.9-.54-3.04-1.6-.23-.21-1.16-1.12-1.69-2.69-.53-1.56-.36-2.92-.32-3.21.17-1.24.63-2.19.94-2.82.33-.68.67-1.23.94-1.61Z"/>
      <path class="cls-1" d="M126.85,56.82c-5.13.16-11.43.25-16.37.25-3.51-.12-2.6,3.83-2.73,6.23.24,8.43-.47,22.29.27,32.18.47,1.82,2.18,2.9,3.75,3.83,6.23,3.72,11.17,9.41,13.91,16.14.23.4,1.11,3.23,1.3,2.32.25-11.57-.12-34.42.13-41.66.6-1.92,7.02-.17,9.05.32,31.48,8.96,32.47,52.87,1.92,63.6-4.37,1.65-9.18,1.53-13.72,1.49-2.7.02-5.47,0-8.78,0-1.94.09-4.27-.22-6.06.3-1.18.42-1.16,1.73-1.21,2.82-.01,3.55-.02,8.79,0,12.5-.31,4.56,3.49,3.31,6.69,3.5,3.96-.04,7.94.14,11.6.2,13.12.19,26.25-4.94,35.87-13.77,35.1-31.42,11.52-90.59-35.5-90.24h-.13Z"/>
      <path class="cls-1" d="M107.27,134.17c-.46-12.12-7.14-24.27-18.48-29.51-2.51-1.29-5.14-2.45-7.88-2.76-6.63-.5-13.42,0-20.02-.25-5.39.05-9.45-3.06-10.7-8.3-1.44-5.53.24-12.29,5.09-14.9,2.77-1.54,6.04-1.6,9.14-1.52,7.54.27,15.13-.25,22.66-.25,2.35-.02,4.73,0,7.14,0,1.25-.03,2.77.11,3.79-.37,1.98-1,1.28-3.65,1.43-5.5,0-3.11.02-7.8-.01-10.55,0-1.31-.37-2.55-1.81-2.76-11.94-.46-25.01-.06-37.16-.18-2.77.02-5.46-.14-8.02.78-12.32,5.08-20.5,17.77-20.75,31.17-.32,12.27,6.41,24.71,17.27,30.73,2.68,1.32,5.78,1.04,8.86,1.08,3.24,0,6.45-.02,9.64-.02,4.87.04,10.26-.51,14.22,2.77,2.91,2.21,5.22,5.42,5.81,8.95.35,1.7.08,3.64.62,5.26.58,1.76,2.52,1.71,4.17,1.71,2.88,0,6.89,0,9.92,0,4.59.27,5.26-.76,5.06-5.45v-.12Z"/>
      <ellipse class="cls-1" cx="47.46" cy="137.58" rx="4.88" ry="4.84"/>
      <ellipse class="cls-1" cx="74.98" cy="153.22" rx="8.06" ry="7.98"/>
      <ellipse class="cls-1" cx="56.55" cy="153.55" rx="6.84" ry="6.78"/>
      <ellipse class="cls-1" cx="96.75" cy="153.5" rx="9.09" ry="9.01"/>
      <ellipse class="cls-1" cx="104.32" cy="20.5" rx="6.35" ry="6.41"/>
      <path class="cls-1" d="M93.94,17.42s-.02-.03,0,0h0Z"/>
      <path class="cls-1" d="M93.94,17.42s0,0,0,.01c0,.02,0,.03,0,.05.02,0,.04,0,.07,0-.04-.04-.06-.06-.07-.07Z"/>
      <path class="cls-1" d="M80.18,28.04c.02,1.26.3,3.31,1.85,5.61,1.38,2.05,3.22,3.49,4.48,4.34,2.26,1.53,4.52,2.41,5.68,2.83,4.53,1.61,8.76,1.85,10.51,1.9,1.89.05,5.81.01,10.18-1.2,1.3-.36,3.87-1.16,6.44-2.7,3.14-1.88,4.7-3.89,5.43-5.06,1.54-2.44,1.66-4.6,1.59-5.85-.25.92-.79,2.27-2.08,3.72-2.05,2.3-4.82,3.51-6.79,4.36-1.7.73-4.97,2.1-9.9,2.6-.99.1-5.12.47-10.24-.42-5.09-.89-8.34-2.53-9.02-2.88-2.93-1.52-4.56-3.15-5.66-4.25-1.17-1.17-1.96-2.22-2.48-2.99Z"/>
      <path class="cls-1" d="M87.95,20.63c.01,1.26.21,3.31,1.31,5.61.98,2.05,2.28,3.49,3.17,4.34,1.6,1.53,3.2,2.41,4.03,2.83,3.21,1.61,6.21,1.85,7.45,1.9,1.34.05,4.12.01,7.22-1.2.92-.36,2.74-1.16,4.57-2.7,2.23-1.88,3.33-3.89,3.85-5.06,1.09-2.44,1.18-4.6,1.13-5.85-.18.92-.56,2.27-1.47,3.72-1.45,2.3-3.42,3.51-4.81,4.36-1.2.73-3.52,2.1-7.02,2.6-.7.1-3.63.47-7.26-.42-3.61-.89-5.91-2.53-6.39-2.88-2.08-1.52-3.23-3.15-4.01-4.25-.83-1.17-1.39-2.22-1.75-2.99Z"/>
    </g>
  </g>
</svg>
